<svg xmlns="http://www.w3.org/2000/svg" viewBox="0 0 512 512" fill="none">
  <!-- Background rounded square in terracotta -->
  <rect width="512" height="512" rx="108" fill="#C4745A"/>

  <!-- The app's own book icon, scaled up and centered -->
  <g transform="translate(64,64) scale(16)">
    <!-- Left page -->
    <path d="M2 4h6a4 4 0 014 4v12a3 3 0 00-3-3H2z" fill="rgba(250,247,244,0.15)" stroke="#FAF7F4" stroke-width="1.8" stroke-linecap="round" stroke-linejoin="round"/>
    <!-- Right page -->
    <path d="M22 4h-6a4 4 0 00-4 4v12a3 3 0 013-3h7z" fill="rgba(250,247,244,0.15)" stroke="#FAF7F4" stroke-width="1.8" stroke-linecap="round" stroke-linejoin="round"/>
    <!-- Left page lines -->
    <path d="M6 8h1m-1 4h2" stroke="#FAF7F4" stroke-width="1.8" stroke-linecap="round" stroke-linejoin="round"/>
    <!-- Right page lines -->
    <path d="M17 8h-1m1 4h-2" stroke="#FAF7F4" stroke-width="1.8" stroke-linecap="round" stroke-linejoin="round"/>
    <!-- Left dot -->
    <circle cx="7" cy="16" r=".5" fill="#FAF7F4" stroke="none"/>
    <!-- Right dot -->
    <circle cx="17" cy="16" r=".5" fill="#FAF7F4" stroke="none"/>
    <!-- Top crown/spine detail -->
    <path d="M9.5 6L12 4l2.5 2" stroke="#FAF7F4" stroke-width="1.2" stroke-linecap="round" stroke-linejoin="round"/>
  </g>
</svg>
